HIERARCHY
ROOT joint_Root
{
	OFFSET 0.0 0.0 0.0
	CHANNELS 6 Xposition Yposition Zposition Zrotation Xrotation Yrotation 
	JOINT Hips
	{
		OFFSET 4.5925 91.4895 -427.239
		CHANNELS 6 Xposition Yposition Zposition Zrotation Xrotation Yrotation 
		JOINT Spine
		{
			OFFSET 15.7357 0.0 0.0
			CHANNELS 6 Xposition Yposition Zposition Zrotation Xrotation Yrotation 
			JOINT Chest
			{
				OFFSET 8.98455 -0.406207 0.0
				CHANNELS 6 Xposition Yposition Zposition Zrotation Xrotation Yrotation 
				JOINT Neck
				{
					OFFSET 16.3773 0.0 0.0
					CHANNELS 6 Xposition Yposition Zposition Zrotation Xrotation Yrotation 
					JOINT Head
					{
						OFFSET 6.45672 0.0 0.0
						CHANNELS 6 Xposition Yposition Zposition Zrotation Xrotation Yrotation 
						End Site
						{
							OFFSET 0.0 0.0 0.0
						}
					}
				}
				JOINT Shoulder_L
				{
					OFFSET 12.9942 -0.242716 4.98039
					CHANNELS 6 Xposition Yposition Zposition Zrotation Xrotation Yrotation 
					JOINT UpperArm_L
					{
						OFFSET 5.34809 0.0 0.0
						CHANNELS 6 Xposition Yposition Zposition Zrotation Xrotation Yrotation 
						JOINT LowerArm_L
						{
							OFFSET 24.3286 1.87007e-05 0.0
							CHANNELS 6 Xposition Yposition Zposition Zrotation Xrotation Yrotation 
							JOINT Hand_L
							{
								OFFSET 22.2916 0.0 0.0
								CHANNELS 6 Xposition Yposition Zposition Zrotation Xrotation Yrotation 
								End Site
								{
									OFFSET 0.0 0.0 0.0
								}
							}
						}
					}
				}
				JOINT Shoulder_R
				{
					OFFSET 12.9945 -0.242716 -4.98039
					CHANNELS 6 Xposition Yposition Zposition Zrotation Xrotation Yrotation 
					JOINT UpperArm_R
					{
						OFFSET -5.34813 0.0 0.0
						CHANNELS 6 Xposition Yposition Zposition Zrotation Xrotation Yrotation 
						JOINT LowerArm_R
						{
							OFFSET -24.3289 0.000322201 0.0
							CHANNELS 6 Xposition Yposition Zposition Zrotation Xrotation Yrotation 
							JOINT Hand_R
							{
								OFFSET -22.2915 -0.000108084 0.0
								CHANNELS 6 Xposition Yposition Zposition Zrotation Xrotation Yrotation 
								End Site
								{
									OFFSET 0.0 0.0 0.0
								}
							}
						}
					}
				}
			}
		}
		JOINT UpperLeg_L
		{
			OFFSET -2.19248 -6.46944 0.0
			CHANNELS 6 Xposition Yposition Zposition Zrotation Xrotation Yrotation 
			JOINT LowerLeg_L
			{
				OFFSET 39.0811 0.0 -1.23785e-05
				CHANNELS 6 Xposition Yposition Zposition Zrotation Xrotation Yrotation 
				JOINT Foot_L
				{
					OFFSET 40.9854 0.0 -1.26872e-05
					CHANNELS 6 Xposition Yposition Zposition Zrotation Xrotation Yrotation 
					JOINT Toes_L
					{
						OFFSET 11.7543 0.0 0.0
						CHANNELS 6 Xposition Yposition Zposition Zrotation Xrotation Yrotation 
						End Site
						{
							OFFSET 0.0 0.0 0.0
						}
					}
				}
			}
		}
		JOINT UpperLeg_R
		{
			OFFSET -2.19251 6.46944 0.0
			CHANNELS 6 Xposition Yposition Zposition Zrotation Xrotation Yrotation 
			JOINT LowerLeg_R
			{
				OFFSET -39.0811 -0.00228153 -0.0401928
				CHANNELS 6 Xposition Yposition Zposition Zrotation Xrotation Yrotation 
				JOINT Foot_R
				{
					OFFSET -40.9854 0.0 0.0
					CHANNELS 6 Xposition Yposition Zposition Zrotation Xrotation Yrotation 
					JOINT Toes_R
					{
						OFFSET -11.7543 0.0 0.0
						CHANNELS 6 Xposition Yposition Zposition Zrotation Xrotation Yrotation 
						End Site
						{
							OFFSET 0.0 0.0 0.0
						}
					}
				}
			}
		}
	}
}
MOTION
Frames:	4
Frame Time:	0.0333333
0.000000 0.000000 0.000000 0.000000 0.000000 -0.000000 -1.176350 84.563000 -0.773688 91.215400 -8.172380 8.930810 15.735700 0.000005 -0.000001 90.393800 80.327000 -91.525500 8.984550 -0.406207 -0.000000 11.581500 0.094249 -2.272220 16.377300 -0.000001 -0.000001 -1.712990 -1.718260 0.521126 6.456720 -0.000001 -0.000000 -2.840320 -2.624190 5.934790 12.994200 -0.242716 4.980390 -91.878700 6.769570 -74.449400 5.348090 -0.000007 -0.000001 -66.994800 20.840100 -12.347800 24.328600 0.000019 0.000005 8.501510 16.000100 -28.469400 22.291600 -0.000001 0.000005 16.617400 5.413340 -3.397540 12.994500 -0.242716 -4.980390 88.505000 9.748900 -81.237600 -5.348130 -0.000001 -0.000004 -59.680100 36.037700 -12.758500 -24.328900 0.000322 -0.000009 0.591248 0.972880 -31.388000 -22.291500 -0.000108 -0.000004 20.632700 5.479970 -5.747920 -2.192480 -6.469440 -0.000000 -174.599000 -18.145000 -12.065800 39.081100 -0.000007 -0.000012 -0.386789 0.277649 54.329000 40.985400 -0.000006 -0.000013 1.208290 6.454080 -82.579700 11.754300 -0.000000 0.000003 -0.000755 -0.005609 -16.778900 -2.192510 6.469440 -0.000001 175.543000 10.079400 165.342000 -39.081100 -0.002282 -0.040193 0.053259 -0.033237 56.406900 -40.985400 0.000008 0.000006 7.694290 6.117700 -82.953200 -11.754300 -0.000006 -0.000006 -0.958488 -1.188370 -16.853700
0.000000 0.000000 0.000000 0.000000 0.000000 -0.000000 -1.062100 85.694200 0.004047 91.983600 -8.650080 9.411040 15.735700 0.000005 -0.000001 90.358500 80.814800 -90.840500 8.984550 -0.406207 -0.000000 10.604700 0.102231 -0.972811 16.377300 -0.000001 -0.000001 0.323799 -1.792990 0.295107 6.456720 -0.000001 -0.000000 -1.061800 -2.361370 4.401660 12.994200 -0.242716 4.980390 -91.720900 5.789230 -73.411700 5.348090 -0.000007 -0.000001 -64.760800 15.762700 -16.258300 24.328600 0.000019 0.000005 10.839300 16.723000 -33.633100 22.291600 -0.000001 0.000005 12.997600 5.450810 -4.670490 12.994500 -0.242716 -4.980390 88.392900 9.414610 -80.267400 -5.348130 -0.000001 -0.000004 -61.705400 33.584000 -10.888800 -24.328900 0.000322 -0.000009 1.271040 2.318310 -28.760500 -22.291500 -0.000108 -0.000004 20.421000 5.442590 -4.376180 -2.192480 -6.469440 -0.000000 -175.284000 -18.317200 -8.911760 39.081100 -0.000007 -0.000012 -0.359045 0.300202 50.101400 40.985400 -0.000006 -0.000013 0.913374 6.157130 -81.102100 11.754300 -0.000000 0.000003 -0.000736 -0.005489 -16.774900 -2.192510 6.469440 -0.000001 174.310000 10.286900 167.869000 -39.081100 -0.002282 -0.040193 0.046857 -0.032783 53.073900 -40.985400 0.000008 0.000006 7.717590 7.221330 -81.608500 -11.754300 -0.000006 -0.000006 -1.101350 -1.366750 -17.001800
0.000000 0.000000 0.000000 0.000000 0.000000 -0.000000 -1.130620 87.501400 0.729954 92.552200 -8.138740 9.430980 15.735700 0.000005 -0.000001 89.086800 81.603100 -88.792400 8.984550 -0.406207 -0.000000 9.026540 -0.263009 0.608942 16.377300 -0.000001 -0.000001 3.130790 -1.974530 -0.273434 6.456720 -0.000001 -0.000000 0.485125 -2.191200 2.792060 12.994200 -0.242716 4.980390 -91.341800 4.246140 -72.443200 5.348090 -0.000007 -0.000001 -57.791300 10.729700 -24.596300 24.328600 0.000019 0.000005 12.969200 16.023000 -39.848900 22.291600 -0.000001 0.000005 13.007100 5.454340 -4.795410 12.994500 -0.242716 -4.980390 88.278500 8.898250 -79.003500 -5.348130 -0.000001 -0.000004 -63.369900 32.176500 -8.337850 -24.328900 0.000322 -0.000009 0.192479 0.384566 -26.670600 -22.291500 -0.000108 -0.000004 20.187600 5.437520 -4.201800 -2.192480 -6.469440 -0.000000 -176.033000 -17.642600 -5.084210 39.081100 -0.000007 -0.000012 -0.301951 0.322743 43.094300 40.985400 -0.000006 -0.000013 0.412612 5.891540 -78.022000 11.754300 -0.000000 0.000003 -0.000572 -0.004456 -16.739500 -2.192510 6.469440 -0.000001 173.408000 11.148000 171.474000 -39.081100 -0.002282 -0.040193 0.038879 -0.033226 46.992000 -40.985400 0.000008 0.000006 7.533500 8.056490 -79.068500 -11.754300 -0.000006 -0.000006 -1.009960 -1.246180 -17.188300
0.000000 0.000000 0.000000 0.000000 0.000000 -0.000000 -1.447710 89.225100 1.215720 92.547900 -6.765900 8.690190 15.735700 0.000005 -0.000001 86.185900 82.703400 -84.978200 8.984550 -0.406207 -0.000000 6.806970 -0.977652 2.470860 16.377300 -0.000001 -0.000001 6.056230 -2.767630 -0.792209 6.456720 -0.000001 -0.000000 2.071500 -2.403410 1.346630 12.994200 -0.242716 4.980390 -90.695600 2.198480 -72.442400 5.348090 -0.000007 -0.000001 -50.522000 0.442026 -34.611800 24.328600 0.000019 0.000005 8.692530 8.957880 -44.505700 22.291600 -0.000001 0.000005 13.590700 5.442990 -4.396280 12.994500 -0.242716 -4.980390 88.273400 7.823660 -77.511800 -5.348130 -0.000001 -0.000004 -64.675700 31.485400 -5.163760 -24.328900 0.000322 -0.000009 -0.125503 -0.254301 -26.091200 -22.291500 -0.000108 -0.000004 18.381000 5.445650 -4.486180 -2.192480 -6.469440 -0.000000 -176.228000 -16.949100 -2.002570 39.081100 -0.000007 -0.000012 -0.161904 0.224832 35.758500 40.985400 -0.000006 -0.000013 0.916021 6.511320 -74.643800 11.754300 -0.000000 0.000003 -0.460959 -0.620413 -16.270700 -2.192510 6.469440 -0.000001 173.402000 12.703400 174.868000 -39.081100 -0.002282 -0.040193 0.030185 -0.032044 40.019200 -40.985400 0.000008 0.000006 7.225940 8.536420 -76.245800 -11.754300 -0.000006 -0.000006 -0.822221 -1.011190 -17.186600
